<?xml version="1.0" encoding="utf-8"?>
<!-- Generator: Adobe Illustrator 15.0.0, SVG Export Plug-In  -->
<!DOCTYPE svg PUBLIC "-//W3C//DTD SVG 1.1//EN" "http://www.w3.org/Graphics/SVG/1.1/DTD/svg11.dtd" [
	<!ENTITY ns_flows "http://ns.adobe.com/Flows/1.0/">
]>
<svg version="1.1"
	 xmlns="http://www.w3.org/2000/svg" xmlns:xlink="http://www.w3.org/1999/xlink" xmlns:a="http://ns.adobe.com/AdobeSVGViewerExtensions/3.0/"
	 x="0px" y="0px" width="640px" height="137px" viewBox="-117.756 0 640 137"
	 overflow="visible" enable-background="new -117.756 0 640 137" xml:space="preserve">
<defs>
</defs>
<path fill="#FFCC33" d="M28.301,33.729l-13.29-8.34C5.999,36.583,0.483,50.673,0,66.048l16.071,3.678L0.146,73.369
	c1.105,14.766,6.853,28.221,15.845,38.887l12.349-7.75l-7.879,12.563c11.024,10.796,25.684,17.861,41.979,19.242l3.767-16.451
	l3.809,16.656c17.738-0.45,33.781-7.624,45.688-19.109l-8.866-14.131l13.924,8.744c9.119-10.918,14.827-24.734,15.687-39.854
	l-15.983-3.658l16.011-3.669c-0.749-15.192-6.364-29.104-15.441-40.108l-14.342,8.998l9.144-14.566
	C104.447,8.118,89.224,1.056,72.359,0.056L68.83,15.472L65.288,0C47.502,0.769,31.465,8.253,19.732,20.079L28.301,33.729z
	 M68.267,44.44c13.137,0,23.785,10.65,23.785,23.787c0,13.137-10.648,23.787-23.785,23.787c-13.136,0-23.784-10.65-23.784-23.787
	C44.482,55.091,55.131,44.44,68.267,44.44z"/>
<path fill="#CC6600" d="M164.784,47.281c0-0.482,0.27-0.798,0.809-0.947c0.538-0.148,1.217-0.288,2.034-0.418
	c0.817-0.13,1.709-0.325,2.676-0.585c0.966-0.259,1.858-0.743,2.676-1.449c1.896-1.635,2.844-4.366,2.844-8.195
	c0-2.453-0.828-4.329-2.481-5.63c-1.653-1.3-4.032-1.951-7.135-1.951c-3.104,0-6.013,0.65-8.725,1.951
	c-1.004,0.483-1.905,0.93-2.704,1.338c-0.799,0.41-1.532,0.613-2.201,0.613s-1.004-0.204-1.004-0.613
	c0-0.631,0.613-1.672,1.84-3.122c1.227-1.338,3.168-2.583,5.825-3.735c2.657-1.152,5.454-1.728,8.39-1.728
	c5.537-0.037,9.849,1.264,12.934,3.902c2.676,2.305,4.014,5.287,4.014,8.947c0,3.661-1.319,6.932-3.958,9.812
	c-2.64,2.88-5.938,4.32-9.896,4.32S164.784,48.953,164.784,47.281z M160.993,62.277c0,2.193-2.138,3.289-6.41,3.289
	c-0.93,0-1.478-0.474-1.645-1.422c-0.168-0.948-0.251-2.276-0.251-3.986c0-3.604,0.725-8.064,2.174-13.379
	c2.415-8.771,4.998-13.937,7.749-15.498c0.371-0.223,0.78-0.334,1.227-0.334c0.445,0,0.669,0.725,0.669,2.174
	c0,1.449-0.075,2.731-0.224,3.846c-0.298,2.23-0.827,5.11-1.589,8.641c-0.762,3.531-1.143,5.612-1.143,6.244L160.993,62.277z"/>
<path fill="#CC6600" d="M188.555,64.897c-3.717,0-5.575-3.475-5.575-10.425c0-3.791,0.465-7.228,1.394-10.313
	c1.449-4.757,3.085-7.136,4.906-7.136c1.077,0,1.932,0.725,2.564,2.174c0.52,1.115,0.761,2.211,0.725,3.289
	c0,1.487-0.446,4.107-1.338,7.86c-0.855,3.271-1.282,5.296-1.282,6.076s0.195,1.32,0.585,1.617c0.391,0.298,0.854,0.446,1.394,0.446
	c0.538,0,1.217-0.353,2.035-1.059c0.816-0.706,1.635-1.477,2.452-2.313s1.57-1.607,2.258-2.313c0.688-0.706,1.161-1.059,1.422-1.059
	c0.521,0,0.78,0.632,0.78,1.896c0,2.602-1.31,5.138-3.93,7.609C194.324,63.717,191.527,64.933,188.555,64.897z M190.84,32.508
	c-1.003-1.486-1.505-3.084-1.505-4.794c0-1.709,0.269-3.13,0.809-4.265c0.538-1.133,1.049-1.969,1.532-2.508
	c0.482-0.539,1.04-0.809,1.673-0.809c1.04,0,1.987,0.772,2.843,2.313c0.854,1.543,1.282,2.834,1.282,3.875
	c0,1.933-0.679,3.448-2.035,4.543C194.082,31.96,192.549,32.508,190.84,32.508z"/>
<path fill="#CC6600" d="M205.372,36.912c1.338,0,2.601,1.282,3.79,3.847c1.747-1.821,3.911-2.732,6.495-2.732
	c2.582,0,4.523,0.567,5.825,1.701c1.301,1.134,1.951,2.731,1.951,4.794s-0.271,4.153-0.809,6.271
	c-0.539,2.118-0.929,3.633-1.171,4.543c-0.241,0.911-0.362,1.664-0.362,2.257c0,0.595,0.204,0.892,0.613,0.892
	c0.558,0,1.245-0.353,2.062-1.059c0.817-0.706,1.636-1.477,2.453-2.313s1.569-1.607,2.258-2.313
	c0.688-0.706,1.161-1.059,1.422-1.059c0.52,0,0.78,0.632,0.78,1.896c0,2.602-1.282,5.11-3.847,7.525
	c-4.312,2.528-7.062,3.791-8.25,3.791c-0.112,0-0.187-0.02-0.224-0.056c-2.974,0-4.459-2.378-4.459-7.136
	c0-2.043,0.194-3.92,0.585-5.63c0.391-1.709,0.678-2.955,0.864-3.735c0.186-0.781,0.278-1.579,0.278-2.397
	c0-1.338-0.771-2.007-2.313-2.007s-3.01,1.143-4.403,3.429c-1.395,2.286-2.333,4.655-2.815,7.107v0.39
	c0,1.264,0.195,2.564,0.585,3.902c0.391,1.338,0.586,2.268,0.586,2.788c0,1.264-1.58,2.508-4.739,3.735
	c-0.483,0.186-0.911,0.279-1.282,0.279c-0.929,0-1.57-0.483-1.923-1.45c-0.354-0.966-0.529-2.471-0.529-4.515
	c0-5.277,0.203-9.087,0.613-11.428c0.558-3.493,1.82-6.745,3.79-9.755C203.866,37.433,204.592,36.912,205.372,36.912z"/>
<path fill="#CC6600" d="M240.831,58.653c2.898,0,5.704-1.152,8.418-3.457c1.003-0.854,1.82-1.645,2.453-2.369
	c0.631-0.725,1.114-1.087,1.449-1.087c0.52,0,0.78,0.521,0.78,1.561c0,1.041-0.279,2.202-0.836,3.484
	c-0.558,1.282-1.487,2.537-2.788,3.763c-3.196,3.01-7.581,4.516-13.155,4.516c-4.424,0-7.434-1.598-9.031-4.794
	c-0.558-1.115-0.836-2.712-0.836-4.794c0-2.081,0.408-4.246,1.227-6.495c0.816-2.248,1.903-4.189,3.261-5.825
	c1.356-1.635,2.927-2.908,4.711-3.819c1.783-0.91,3.688-1.366,5.714-1.366c2.024,0,3.586,0.502,4.683,1.505
	c1.096,1.003,1.645,2.305,1.645,3.902c0,1.598-0.4,2.908-1.199,3.93c-0.799,1.023-1.83,1.877-3.094,2.564
	c-1.264,0.688-2.667,1.301-4.209,1.84c-1.542,0.539-3.057,1.143-4.543,1.812v1.394c0.037,1.338,0.594,2.286,1.673,2.843
	C238.229,58.319,239.456,58.617,240.831,58.653z M239.884,42.933c-1.934,0-3.271,2.249-4.014,6.746
	c0.78-0.52,1.514-0.984,2.201-1.394c0.688-0.408,1.291-0.798,1.812-1.17c1.114-0.817,1.69-1.747,1.728-2.788
	C241.611,43.398,241.035,42.933,239.884,42.933z"/>
<path fill="#CC6600" d="M285.205,51.573c0.669,0,1.004,0.855,1.004,2.564c0,0.929-0.391,2.054-1.171,3.373
	c-0.78,1.32-1.794,2.528-3.038,3.624c-1.246,1.097-2.63,1.998-4.153,2.704c-1.524,0.707-3.01,1.06-4.46,1.06
	c-1.97,0-3.289-1.729-3.958-5.185c-0.967,1.598-2.229,2.908-3.79,3.93c-1.562,1.022-3.651,1.533-6.271,1.533
	s-4.73-0.817-6.327-2.453c-1.599-1.635-2.379-3.624-2.342-5.965c0-6.318,2.1-11.297,6.3-14.94c1.783-1.523,3.446-2.527,4.989-3.01
	c1.541-0.482,3.168-0.725,4.877-0.725s3.104,0.298,4.182,0.892c0.52-1.077,1.114-1.617,1.783-1.617c1.301,0,2.537,0.567,3.708,1.701
	c1.17,1.134,1.756,2.202,1.756,3.205c-0.521,1.227-1.282,2.695-2.286,4.404c-0.298,1.709-0.445,4.106-0.445,7.191
	c0,3.085,0.39,4.627,1.17,4.627c0.967,0,3.308-1.932,7.024-5.797C284.425,51.945,284.907,51.573,285.205,51.573z M258.893,54.918
	c0,2.862,1.06,4.292,3.178,4.292c2.267-0.037,4.144-1.245,5.631-3.624c0.52-0.817,0.947-1.82,1.282-3.01
	c0-4.162,0.371-7.729,1.114-10.703c-3.01,0.595-5.63,2.044-7.859,4.348C260.008,48.526,258.893,51.425,258.893,54.918z"/>
<path fill="#CC6600" d="M294.541,41.372c1.933-2.192,4.404-3.289,7.415-3.289c4.311,0,7.042,1.747,8.194,5.24
	c0.334,1.041,0.502,2.193,0.502,3.457c0,2.825-0.92,5.612-2.76,8.362c-1.84,2.751-4.061,4.609-6.661,5.575h0.669
	c2.712,0,5.463-1.003,8.25-3.01c1.784-1.263,3.187-2.573,4.209-3.93c1.021-1.356,1.792-2.035,2.313-2.035
	c0.52,0,0.78,0.595,0.78,1.784c0,2.082-0.892,4.181-2.676,6.299c-2.676,3.048-6.096,4.832-10.258,5.352
	c-3.01,0.334-5.147,0.391-6.41,0.167c-1.264-0.223-2.23-0.502-2.899-0.836c-1.449-0.743-2.174-1.858-2.174-3.345
	c0-0.817,0.167-1.561,0.502-2.229c2.936,0,5.165-1.115,6.689-3.345c1.523-2.229,2.285-5.017,2.285-8.362
	c0-0.817-0.298-1.551-0.892-2.202c-0.595-0.65-1.385-0.976-2.369-0.976c-0.985,0-2.054,0.427-3.205,1.282
	c-1.152,0.855-2.072,1.923-2.76,3.206c-0.688,1.282-1.31,2.546-1.867,3.791c-0.558,1.246-1.004,2.815-1.338,4.71
	c-0.596,3.419-1.273,7.739-2.035,12.961c-0.762,5.221-1.236,8.027-1.422,8.417s-0.465,0.753-0.836,1.087
	c-0.372,0.334-0.762,0.501-1.171,0.501c-0.743,0-1.356-0.223-1.839-0.669c-1.338-1.152-2.119-2.035-2.342-2.648
	s-0.334-1.403-0.334-2.369c0-3.643,0.613-8.752,1.839-15.33c1.227-6.578,3.345-13.416,6.355-20.515
	c0.446-1.04,1.235-1.561,2.369-1.561c1.133,0,2.221,1.003,3.261,3.01C294.226,40.443,294.43,40.926,294.541,41.372z"/>
<path fill="#CC6600" d="M325.786,41.372c1.933-2.192,4.404-3.289,7.415-3.289c4.311,0,7.042,1.747,8.194,5.24
	c0.334,1.041,0.502,2.193,0.502,3.457c0,2.825-0.92,5.612-2.76,8.362c-1.84,2.751-4.061,4.609-6.661,5.575h0.669
	c2.712,0,5.463-1.003,8.25-3.01c1.784-1.263,3.187-2.573,4.209-3.93c1.021-1.356,1.792-2.035,2.313-2.035
	c0.52,0,0.78,0.595,0.78,1.784c0,2.082-0.892,4.181-2.676,6.299c-2.676,3.048-6.096,4.832-10.258,5.352
	c-3.01,0.334-5.147,0.391-6.41,0.167c-1.264-0.223-2.23-0.502-2.899-0.836c-1.449-0.743-2.174-1.858-2.174-3.345
	c0-0.817,0.167-1.561,0.502-2.229c2.936,0,5.165-1.115,6.689-3.345c1.523-2.229,2.285-5.017,2.285-8.362
	c0-0.817-0.298-1.551-0.892-2.202c-0.595-0.65-1.385-0.976-2.369-0.976c-0.985,0-2.054,0.427-3.205,1.282
	c-1.152,0.855-2.072,1.923-2.76,3.206c-0.688,1.282-1.31,2.546-1.867,3.791c-0.558,1.246-1.004,2.815-1.338,4.71
	c-0.596,3.419-1.273,7.739-2.035,12.961c-0.762,5.221-1.236,8.027-1.422,8.417s-0.465,0.753-0.836,1.087
	c-0.372,0.334-0.762,0.501-1.171,0.501c-0.743,0-1.356-0.223-1.839-0.669c-1.338-1.152-2.119-2.035-2.342-2.648
	s-0.334-1.403-0.334-2.369c0-3.643,0.613-8.752,1.839-15.33c1.227-6.578,3.345-13.416,6.355-20.515
	c0.446-1.04,1.235-1.561,2.369-1.561c1.133,0,2.221,1.003,3.261,3.01C325.471,40.443,325.675,40.926,325.786,41.372z"/>
<path fill="#CC6600" d="M358.208,64.897c-5.314,0.036-8.938-1.951-10.87-5.965c-0.669-1.412-1.004-3.187-1.004-5.324
	c0-2.136,0.186-4.413,0.558-6.829c0.743-4.831,2.174-9.291,4.293-13.379c1.077-2.081,2.285-3.865,3.623-5.352
	c2.936-3.27,6.206-4.886,9.812-4.85c1.598,0,2.852,0.437,3.763,1.31c0.91,0.874,1.366,2.128,1.366,3.763
	c0,1.636-0.483,3.28-1.45,4.934c-0.967,1.654-2.201,3.364-3.707,5.128c-1.505,1.766-3.168,3.615-4.989,5.547
	c-1.821,1.933-3.604,4.033-5.352,6.299v2.23c0,2.082,0.446,3.605,1.338,4.571c0.893,0.967,1.933,1.449,3.122,1.449
	c3.196,0,6.021-1.579,8.474-4.738c1.003-1.301,1.765-1.951,2.285-1.951s0.78,0.632,0.78,1.896c0,1.264-0.344,2.555-1.031,3.874
	c-0.688,1.32-1.589,2.528-2.703,3.624c-1.115,1.097-2.397,1.998-3.847,2.704C361.219,64.544,359.731,64.897,358.208,64.897z
	 M361.219,34.961c0.78-0.966,1.394-1.839,1.84-2.62c0.445-0.78,0.669-1.588,0.669-2.425s-0.298-1.254-0.893-1.254
	c-1.301,0-2.741,1.338-4.32,4.014c-1.58,2.676-2.759,6.188-3.54,10.536c1.264-1.932,2.426-3.548,3.484-4.85
	C359.519,37.061,360.438,35.928,361.219,34.961z"/>
<path fill="#CC6600" d="M380.316,58.653c2.898,0,5.704-1.152,8.418-3.457c1.003-0.854,1.82-1.645,2.453-2.369
	c0.631-0.725,1.114-1.087,1.449-1.087c0.52,0,0.78,0.521,0.78,1.561c0,1.041-0.279,2.202-0.836,3.484
	c-0.558,1.282-1.487,2.537-2.788,3.763c-3.196,3.01-7.581,4.516-13.155,4.516c-4.424,0-7.434-1.598-9.031-4.794
	c-0.558-1.115-0.836-2.712-0.836-4.794c0-2.081,0.408-4.246,1.227-6.495c0.816-2.248,1.903-4.189,3.261-5.825
	c1.356-1.635,2.927-2.908,4.711-3.819c1.783-0.91,3.688-1.366,5.714-1.366c2.024,0,3.586,0.502,4.683,1.505
	c1.096,1.003,1.645,2.305,1.645,3.902c0,1.598-0.4,2.908-1.199,3.93c-0.799,1.023-1.83,1.877-3.094,2.564
	c-1.264,0.688-2.667,1.301-4.209,1.84c-1.542,0.539-3.057,1.143-4.543,1.812v1.394c0.037,1.338,0.594,2.286,1.673,2.843
	C377.715,58.319,378.941,58.617,380.316,58.653z M379.369,42.933c-1.934,0-3.271,2.249-4.014,6.746
	c0.78-0.52,1.514-0.984,2.201-1.394c0.688-0.408,1.291-0.798,1.812-1.17c1.114-0.817,1.69-1.747,1.728-2.788
	C381.097,43.398,380.521,42.933,379.369,42.933z"/>
<path fill="#CC6600" d="M181.508,95.421c0-0.482,0.27-0.798,0.809-0.947c0.538-0.148,1.217-0.288,2.034-0.418
	c0.817-0.13,1.709-0.325,2.676-0.585c0.966-0.259,1.858-0.743,2.676-1.449c1.896-1.635,2.844-4.366,2.844-8.195
	c0-2.453-0.828-4.329-2.481-5.63c-1.653-1.3-4.032-1.951-7.135-1.951c-3.104,0-6.013,0.65-8.725,1.951
	c-1.004,0.483-1.905,0.93-2.704,1.338c-0.799,0.41-1.532,0.613-2.201,0.613s-1.004-0.204-1.004-0.613
	c0-0.631,0.613-1.672,1.84-3.122c1.227-1.338,3.168-2.583,5.825-3.735c2.657-1.152,5.454-1.728,8.39-1.728
	c5.537-0.037,9.849,1.264,12.934,3.902c2.676,2.305,4.014,5.287,4.014,8.947c0,3.661-1.319,6.932-3.958,9.812
	c-2.64,2.88-5.938,4.32-9.896,4.32S181.508,97.093,181.508,95.421z M177.717,110.417c0,2.193-2.138,3.289-6.41,3.289
	c-0.93,0-1.478-0.474-1.645-1.422c-0.168-0.948-0.251-2.276-0.251-3.986c0-3.604,0.725-8.064,2.174-13.379
	c2.415-8.771,4.998-13.937,7.749-15.498c0.371-0.223,0.78-0.334,1.227-0.334c0.445,0,0.669,0.725,0.669,2.174
	c0,1.449-0.075,2.731-0.224,3.846c-0.298,2.23-0.827,5.11-1.589,8.641c-0.762,3.531-1.143,5.612-1.143,6.244L177.717,110.417z"/>
<path fill="#CC6600" d="M208.138,103.504l0.334,6.801c0,0.892-0.465,1.692-1.394,2.397c-0.929,0.706-2.193,1.06-3.791,1.06
	c-0.929,0-1.57-0.483-1.923-1.45c-0.354-0.966-0.529-2.378-0.529-4.236c0-3.902,0.195-6.959,0.585-9.17
	c0.391-2.211,1.161-4.45,2.313-6.717c-1.71-1.635-2.564-3.047-2.564-4.237c0-2.489,1.338-3.735,4.014-3.735
	c1.375,0,2.583,0.725,3.624,2.174c0.743,1.003,1.282,2.174,1.616,3.512c0.521,0.186,1.171,0.279,1.951,0.279
	c1.078,0,2.322-0.353,3.735-1.06l1.449-0.725c0.446-0.223,0.836-0.334,1.171-0.334c1.077,0,2.154,1.58,3.233,4.738
	c-0.335,1.45-0.697,2.843-1.087,4.181c-0.391,1.338-0.847,2.955-1.366,4.85c-0.521,1.895-0.79,3.168-0.809,3.818
	c-0.019,0.651,0.176,0.976,0.586,0.976c0.557,0,1.244-0.353,2.062-1.059c0.816-0.706,1.635-1.477,2.452-2.313
	s1.57-1.607,2.258-2.313c0.688-0.706,1.161-1.059,1.422-1.059c0.52,0,0.78,0.632,0.78,1.896c0,2.564-1.124,5.092-3.372,7.581
	c-2.249,2.491-4.822,3.716-7.722,3.68c-1.709,0-2.991-0.688-3.846-2.063c-0.855-1.375-1.302-3.047-1.338-5.017
	c0-3.902,0.872-7.6,2.62-11.093c-0.818,0.334-1.738,0.501-2.76,0.501c-1.022,0-1.756-0.037-2.202-0.111
	c-0.334,1.413-0.669,2.834-1.003,4.265C208.305,100.95,208.138,102.278,208.138,103.504z"/>
<path fill="#CC6600" d="M247.973,108.131c-2.936,3.456-6.457,5.184-10.563,5.184s-7.183-1.049-9.226-3.149
	c-2.045-2.099-3.048-4.71-3.011-7.833c-0.037-4.422,1.356-8.231,4.181-11.428c2.824-3.196,6.522-4.794,11.094-4.794
	c2.081,0,3.754,0.261,5.018,0.781c2.192,0.892,3.289,1.728,3.289,2.508c0,0.595-1.533,0.902-4.6,0.92
	c-3.065,0.019-5.63,1.078-7.692,3.178s-3.095,4.748-3.095,7.944c0,1.672,0.492,3.075,1.478,4.208c0.984,1.134,2.378,1.7,4.181,1.7
	s3.298-0.371,4.488-1.115c-2.64-1.784-3.958-4.367-3.958-7.749c-0.038-1.784,0.604-3.409,1.923-4.878
	c1.319-1.468,3.011-2.211,5.073-2.23c2.062-0.018,3.54,0.549,4.432,1.7c0.892,1.152,1.338,2.63,1.338,4.432
	c0,1.803-0.428,3.707-1.282,5.714h0.335c1.635-0.037,3.047-0.613,4.236-1.728c0.446-0.446,0.826-0.836,1.143-1.171
	c0.315-0.334,0.642-0.501,0.976-0.501c0.521,0,0.78,0.613,0.78,1.839c0,2.268-0.669,3.968-2.007,5.101
	c-1.338,1.134-2.814,1.7-4.432,1.7C250.454,108.466,249.088,108.354,247.973,108.131z M247.472,101.665
	c0.631-1.338,0.947-2.638,0.947-3.902c0-1.263-0.409-1.895-1.227-1.895c-0.334,0-0.613,0.242-0.836,0.725
	c-0.223,0.483-0.334,0.948-0.334,1.394C246.022,99.472,246.505,100.699,247.472,101.665z"/>
<path fill="#CC6600" d="M260.628,86.613c0.445-1.04,1.17-1.551,2.174-1.533c1.003,0.019,1.97,0.744,2.898,2.174
	c0.929,1.431,1.394,2.5,1.394,3.205c0,1.041-0.409,3.299-1.227,6.773c-0.817,3.476-1.803,7.145-2.954,11.01
	c2.676-1.747,5.631-4.292,8.863-7.637c0.483-0.52,0.854-0.761,1.115-0.725c0.521,0,0.78,0.577,0.78,1.728
	c0,2.156-1.227,4.525-3.679,7.107c-2.453,2.583-5.52,4.691-9.198,6.328l-1.449,4.515c-0.93,2.824-2.062,4.868-3.4,6.132
	c-1.748,1.635-4.032,2.453-6.857,2.453c-2.823,0-5.101-0.707-6.829-2.118c-1.728-1.413-2.592-3.159-2.592-5.24
	c0-2.082,1.449-3.791,4.349-5.129c1.338-0.595,2.87-1.162,4.599-1.7c1.729-0.539,3.577-1.124,5.547-1.756
	c0.371-1.969,0.705-3.865,1.003-5.686c0.335-2.304,1.45-6.764,3.345-13.379C259.401,90.237,260.106,88.062,260.628,86.613z
	 M252.712,118.11c-1.338,0.482-2.49,0.882-3.457,1.198c-0.966,0.315-1.951,0.641-2.954,0.976c-1.004,0.334-1.505,0.706-1.505,1.115
	c0,0.706,0.445,1.319,1.338,1.839c1.114,0.409,1.933,0.613,2.452,0.613C250.147,123.852,251.522,121.937,252.712,118.11z
	 M268.042,68.719c2.304,0,3.864,0.874,4.683,2.62c-0.111,2.193-1.004,4.348-2.676,6.466c-1.673,2.119-3.55,3.159-5.631,3.122
	c-0.967-1.523-1.449-3.214-1.449-5.073c0-1.858,0.446-3.512,1.338-4.961C265.198,69.443,266.443,68.719,268.042,68.719z"/>
<path fill="#CC6600" d="M283.974,106.793c2.898,0,5.704-1.152,8.418-3.457c1.003-0.854,1.82-1.645,2.453-2.369
	c0.631-0.725,1.114-1.087,1.449-1.087c0.52,0,0.78,0.521,0.78,1.561c0,1.041-0.279,2.202-0.836,3.484
	c-0.558,1.282-1.487,2.537-2.788,3.763c-3.196,3.01-7.581,4.516-13.155,4.516c-4.424,0-7.434-1.598-9.031-4.794
	c-0.558-1.115-0.836-2.712-0.836-4.794c0-2.081,0.408-4.246,1.227-6.495c0.816-2.248,1.903-4.189,3.261-5.825
	c1.356-1.635,2.927-2.908,4.711-3.819c1.783-0.91,3.688-1.366,5.714-1.366c2.024,0,3.586,0.502,4.683,1.505
	c1.096,1.003,1.645,2.305,1.645,3.902c0,1.598-0.4,2.908-1.199,3.93c-0.799,1.023-1.83,1.877-3.094,2.564
	c-1.264,0.688-2.667,1.301-4.209,1.84c-1.542,0.539-3.057,1.143-4.543,1.812v1.394c0.037,1.338,0.594,2.286,1.673,2.843
	C281.372,106.459,282.599,106.757,283.974,106.793z M283.026,91.073c-1.934,0-3.271,2.249-4.014,6.746
	c0.78-0.52,1.514-0.984,2.201-1.394c0.688-0.408,1.291-0.798,1.812-1.17c1.114-0.817,1.69-1.747,1.728-2.788
	C284.754,91.538,284.178,91.073,283.026,91.073z"/>
<path fill="#CC6600" d="M316.546,99.713c0.669,0,1.003,0.567,1.003,1.7c0,1.134-0.288,2.351-0.863,3.651
	c-0.577,1.302-1.45,2.556-2.62,3.763c-1.171,1.208-2.667,2.239-4.488,3.094c-1.821,0.855-3.967,1.282-6.438,1.282
	s-4.637-0.733-6.494-2.202c-1.859-1.467-2.787-3.586-2.787-6.355c0-2.768,0.437-5.277,1.31-7.526
	c0.873-2.248,2.025-4.189,3.456-5.825c1.431-1.635,3.057-2.908,4.878-3.819c1.82-0.91,3.549-1.366,5.185-1.366
	c2.861,0,4.293,1.134,4.293,3.401c0,1.301-0.271,2.341-0.809,3.122c-0.539,0.78-1.087,1.17-1.645,1.17
	c-0.744,0-1.394-0.259-1.951-0.78c-0.558-0.52-1.171-0.789-1.84-0.808c-0.669-0.019-1.31,0.307-1.923,0.976
	s-1.125,1.524-1.533,2.564c-0.818,2.082-1.227,4.516-1.227,7.303c0.037,1.338,0.649,2.341,1.84,3.01
	c0.816,0.446,1.784,0.679,2.898,0.697c1.115,0.019,2.183-0.343,3.206-1.087c1.021-0.743,1.959-1.551,2.814-2.425
	c0.854-0.873,1.607-1.681,2.258-2.425C315.719,100.085,316.211,99.713,316.546,99.713z"/>
<path fill="#CC6600" d="M317.192,109.832c-0.428-0.984-0.734-2.137-0.92-3.457c-0.187-1.318-0.279-3.168-0.279-5.546
	c0-2.378,0.446-5.593,1.338-9.644h-2.508c-0.446,0-0.669-0.186-0.669-0.558c0-0.892,0.083-1.625,0.251-2.202
	c0.167-0.576,0.565-1.235,1.198-1.979h1.338c0.52,0,1.077-0.018,1.672-0.056c1.784-5.723,3.604-8.585,5.464-8.585
	c1.485,0.038,2.526,0.985,3.121,2.843c0.148,0.521,0.315,1.078,0.502,1.672l-2.285,4.014c2.601,0.075,4.245,0.111,4.934,0.111
	c0.687,0,1.059,0.065,1.114,0.195c0.056,0.13,0.084,0.326,0.084,0.585c0,0.669-0.158,1.505-0.474,2.508
	c-0.316,1.003-0.679,1.487-1.087,1.45l-5.575-0.279c-0.78,4.535-1.171,8.288-1.171,11.261c0,2.974,0.427,4.459,1.282,4.459
	c0.706,0,1.988-0.585,3.847-1.756c1.858-1.171,3.196-2.294,4.014-3.373c0.817-1.078,1.486-1.617,2.007-1.617s0.78,0.632,0.78,1.896
	c0,1.264-0.445,2.555-1.338,3.874c-0.892,1.32-2.016,2.528-3.372,3.624c-1.357,1.097-2.862,1.998-4.516,2.704
	c-1.654,0.707-3.094,1.06-4.32,1.06s-2.165-0.288-2.815-0.864C318.158,111.597,317.619,110.816,317.192,109.832z"/>
</svg>
